<svg xmlns="http://www.w3.org/2000/svg" xmlns:xlink="http://www.w3.org/1999/xlink" id="Layer_1" x="0px" y="0px" viewBox="0 0 250 250" style="enable-background:new 0 0 250 250;" xml:space="preserve">
<style type="text/css">
	.st0{fill:#61DAFB;}
</style>
<g>
	<path class="st0" d="M213,125c0-11.7-14.6-22.7-37-29.6c5.2-22.8,2.9-41-7.2-46.8c-2.4-1.4-5.1-2-8-2v8c1.6,0,3,0.4,4.1,0.9   c4.9,2.8,7,13.5,5.4,27.1c-0.4,3.4-1.1,6.9-1.9,10.5c-7-1.7-14.7-3.1-22.8-3.9c-4.9-6.7-9.9-12.7-14.9-18   c11.7-10.9,22.7-16.8,30.1-16.8v-7.9l0,0c-9.9,0-22.8,7-35.9,19.3c-13-12.1-26-19.1-35.9-19.1v8c7.4,0,18.5,5.9,30.1,16.7   c-5,5.3-10,11.2-14.8,17.9c-8.1,0.9-15.8,2.2-22.8,3.9c-0.9-3.6-1.4-7.1-1.9-10.4c-1.7-13.7,0.4-24.3,5.2-27.2   c1.1-0.6,2.5-0.9,4.2-0.9v-7.9l0,0c-3,0-5.7,0.6-8.1,2c-10.1,5.8-12.3,23.9-7.2,46.7c-22.3,6.9-36.9,17.9-36.9,29.5   c0,11.7,14.6,22.7,37,29.6c-5.2,22.8-2.9,41,7.2,46.8c2.4,1.4,5.1,2,8.1,2c9.9,0,22.8-7,35.9-19.3c13,12.1,26,19.1,35.9,19.1   c3,0,5.7-0.6,8.1-2c10.1-5.8,12.3-23.9,7.2-46.7C198.5,147.7,213,136.6,213,125z M166.3,101.1c-1.4,4.7-3,9.4-4.9,14.2   c-1.5-2.9-3-5.7-4.7-8.6c-1.6-2.9-3.4-5.7-5.2-8.4C156.6,99,161.6,99.9,166.3,101.1z M149.8,139.2c-2.8,4.9-5.7,9.5-8.7,13.7   c-5.4,0.5-10.7,0.7-16.2,0.7c-5.4,0-10.8-0.3-16.1-0.7c-3-4.3-5.9-8.8-8.7-13.6c-2.7-4.7-5.2-9.5-7.4-14.3   c2.2-4.8,4.7-9.6,7.4-14.3c2.8-4.9,5.7-9.5,8.7-13.7c5.4-0.5,10.7-0.7,16.2-0.7c5.4,0,10.8,0.3,16.1,0.7c3,4.3,5.9,8.8,8.7,13.6   c2.7,4.7,5.2,9.5,7.4,14.3C155,129.8,152.6,134.6,149.8,139.2z M161.4,134.6c1.9,4.8,3.6,9.6,4.9,14.3c-4.7,1.1-9.7,2.1-14.8,2.9   c1.8-2.8,3.5-5.6,5.2-8.5C158.4,140.4,160,137.4,161.4,134.6z M125.1,172.9c-3.4-3.4-6.7-7.3-10-11.5c3.2,0.1,6.5,0.3,9.9,0.3   c3.4,0,6.7-0.1,10-0.3C131.7,165.6,128.4,169.5,125.1,172.9z M98.3,151.8c-5.1-0.8-10-1.7-14.7-2.9c1.4-4.7,3-9.4,4.9-14.2   c1.5,2.9,3,5.7,4.7,8.6C94.9,146.3,96.6,149,98.3,151.8z M124.8,77.1c3.4,3.4,6.7,7.3,10,11.5c-3.2-0.1-6.5-0.3-9.9-0.3   c-3.4,0-6.7,0.1-10,0.3C118.3,84.4,121.5,80.5,124.8,77.1z M98.3,98.2c-1.8,2.8-3.5,5.6-5.2,8.5c-1.6,2.9-3.2,5.7-4.7,8.6   c-1.9-4.8-3.6-9.6-4.9-14.3C88.2,99.9,93.2,99,98.3,98.2z M65.8,143.2c-12.7-5.4-20.9-12.5-20.9-18.2s8.2-12.7,20.9-18.2   c3.1-1.4,6.4-2.5,10-3.7c2.1,7,4.7,14.3,8.1,21.8c-3.3,7.4-5.9,14.8-7.9,21.8C72.3,145.7,69,144.5,65.8,143.2z M85.2,194.5   c-4.9-2.8-7-13.5-5.4-27.1c0.4-3.4,1.1-6.9,1.9-10.5c7,1.7,14.7,3.1,22.8,3.9c4.9,6.7,9.9,12.7,14.9,18   c-11.7,10.9-22.7,16.8-30.1,16.8C87.6,195.4,86.2,195,85.2,194.5z M170.2,167.1c1.7,13.7-0.4,24.3-5.2,27.2   c-1.1,0.6-2.5,0.9-4.2,0.9c-7.4,0-18.5-5.9-30.1-16.7c5-5.3,10-11.2,14.8-17.9c8.1-0.9,15.8-2.2,22.8-3.9   C169.2,160.3,169.9,163.7,170.2,167.1z M184.1,143.2c-3.1,1.4-6.4,2.5-10,3.7c-2.1-7-4.7-14.3-8.1-21.8c3.3-7.4,5.9-14.8,7.9-21.8   c3.6,1.1,6.9,2.4,10.1,3.7c12.7,5.4,20.9,12.5,20.9,18.2C205,130.6,196.8,137.7,184.1,143.2z"></path>
	<path class="st0" d="M89,46.7L89,46.7L89,46.7z"></path>
	<circle class="st0" cx="124.9" cy="125" r="16.4"></circle>
	<path class="st0" d="M160.7,46.6L160.7,46.6L160.7,46.6z"></path>
</g>
</svg>