<svg xmlns="http://www.w3.org/2000/svg" xmlns:xlink="http://www.w3.org/1999/xlink" id="Layer_1" x="0px" y="0px" viewBox="0 0 250 250" style="enable-background:new 0 0 250 250;" xml:space="preserve">
<style type="text/css">
	.st0{fill:#2396ED;}
</style>
<g>
	<path class="st0" d="M232.1,100.2c-4.9-3.4-16.2-4.7-25-3c-1-8.5-5.8-16-13.9-22.6l-4.8-3.4l-3.3,4.9c-4.1,6.4-6.1,15.4-5.6,23.9   c0.2,3,1.2,8.3,4.3,13c-2.8,1.7-8.8,3.8-16.6,3.8h-148l-0.4,1.7c-1.5,8.5-1.5,35.2,15.4,55.7c12.6,15.5,31.5,23.4,56.3,23.4   c53.7,0,93.4-25.8,112.1-72.5c7.4,0.2,23.1,0,31.2-16c0.2-0.5,0.6-1.3,2-4.5l0.8-1.7L232.1,100.2L232.1,100.2z M137.6,40h-22.5   v21.4h22.6L137.6,40L137.6,40z M137.6,65.6h-22.5v21.3h22.6L137.6,65.6L137.6,65.6z M111,65.6H88.5v21.3H111V65.6L111,65.6z    M84.4,65.6H61.9v21.3h22.6L84.4,65.6L84.4,65.6z M57.7,91.2H35.3v21.3h22.6L57.7,91.2L57.7,91.2z M84.4,91.2H61.9v21.3h22.6   L84.4,91.2L84.4,91.2z M111,91.2H88.5v21.3H111V91.2L111,91.2z M137.6,91.2h-22.5v21.3h22.6L137.6,91.2L137.6,91.2z M164.2,91.2   h-22.6v21.3h22.6V91.2L164.2,91.2z"></path>
</g>
</svg>