<svg xmlns="http://www.w3.org/2000/svg" xmlns:xlink="http://www.w3.org/1999/xlink" id="Layer_1" x="0px" y="0px" viewBox="0 0 250 250" style="enable-background:new 0 0 250 250;" xml:space="preserve">
<g>
	<path d="M65.1,139.9v1.2H37.4V99.6h27.5v1.2H38.5v18.1h24.8v1.2H38.5v19.9H65.1z"></path>
	<path d="M88.9,111.3l-10.9,14.4l12,15.4h-1.5l-11.3-14.6L66,141.1h-1.4l11.9-15.4l-10.9-14.4h1.5l10,13.5l10.3-13.5H88.9z"></path>
	<path d="M92.2,151.3v-40.1h1.2v8.4h0.1c0.4-1.3,0.9-2.5,1.7-3.6c0.7-1.1,1.6-2.1,2.6-2.9c1-0.8,2.2-1.4,3.5-1.9   c1.3-0.4,2.7-0.7,4.2-0.7c2,0,3.7,0.4,5.3,1.2c1.6,0.8,2.9,1.9,4,3.3c1.1,1.4,1.9,3,2.5,4.9c0.6,1.9,0.9,4,0.9,6.2   c0,2.1-0.3,4.1-0.8,6c-0.6,1.9-1.4,3.6-2.4,5c-1.1,1.4-2.4,2.6-4,3.4c-1.6,0.8-3.4,1.2-5.5,1.2c-3.2,0-5.8-0.8-7.8-2.5   c-2.1-1.6-3.4-3.8-4.1-6.5h-0.1v18.6H92.2z M110.7,139.3c1.5-0.9,2.6-2,3.6-3.4c0.9-1.4,1.6-2.9,2.1-4.6c0.4-1.7,0.7-3.5,0.7-5.2   c0-1.9-0.2-3.8-0.7-5.5c-0.5-1.7-1.2-3.3-2.1-4.6c-0.9-1.3-2.1-2.4-3.6-3.2c-1.5-0.8-3.1-1.2-5.1-1.2c-1.9,0-3.6,0.4-5.1,1.2   c-1.5,0.8-2.8,1.8-3.8,3.1c-1,1.3-1.8,2.8-2.4,4.6c-0.5,1.7-0.8,3.6-0.8,5.5c0,4.7,1.1,8.3,3.3,10.8c2.2,2.5,5.1,3.7,8.8,3.7   C107.5,140.6,109.3,140.2,110.7,139.3z"></path>
	<path d="M123.4,141.1v-29.8h1.2v7.4h0.1c0.3-1.1,0.7-2.2,1.3-3.2c0.6-1,1.4-1.8,2.3-2.6c1-0.7,2.1-1.3,3.5-1.7   c1.3-0.4,2.9-0.6,4.7-0.6v1.2c-2.1-0.1-3.8,0.2-5.3,0.8c-1.5,0.7-2.7,1.6-3.7,2.8c-1,1.2-1.7,2.5-2.1,4.1c-0.5,1.5-0.7,3.1-0.7,4.8   v16.9H123.4z"></path>
	<path d="M138.6,132c0.4,1.7,1.1,3.2,2.1,4.5c0.9,1.3,2.1,2.3,3.6,3c1.5,0.7,3.3,1.1,5.4,1.1c3.1,0,5.7-0.8,7.8-2.5   c2.1-1.6,3.4-4.1,3.9-7.4h1.2c-0.4,3.5-1.8,6.2-4.1,8.1c-2.3,1.9-5.2,2.9-8.6,2.9c-2.3,0-4.3-0.3-5.9-1.1c-1.6-0.8-3-1.9-4-3.3   c-1-1.4-1.8-3.1-2.3-5c-0.5-1.9-0.8-4-0.8-6.2c0-2.5,0.4-4.7,1.1-6.6c0.7-1.9,1.7-3.6,2.9-4.9c1.2-1.3,2.6-2.4,4.2-3   c1.6-0.7,3.2-1,4.9-1c2.3,0,4.3,0.4,6,1.3c1.7,0.9,3.1,2.1,4.1,3.5c1.1,1.5,1.8,3.2,2.3,5.1c0.5,1.9,0.7,3.9,0.6,5.9h-25   C137.9,128.4,138.1,130.3,138.6,132z M160.9,120.1c-0.5-1.6-1.2-3.1-2.2-4.3c-1-1.2-2.2-2.2-3.7-2.9c-1.5-0.7-3.2-1.1-5.1-1.1   c-1.6,0-3.1,0.3-4.6,0.9c-1.4,0.6-2.7,1.5-3.7,2.7c-1.1,1.2-1.9,2.6-2.6,4.3c-0.7,1.7-1,3.5-1.2,5.6h23.8   C161.7,123.4,161.4,121.7,160.9,120.1z"></path>
	<path d="M186.2,116.2c-0.5-1-1.1-1.9-2-2.6c-0.9-0.7-1.9-1.2-3-1.5c-1.2-0.3-2.5-0.5-3.9-0.5c-2.1,0-3.7,0.3-4.9,0.8   c-1.2,0.6-2.1,1.2-2.7,1.9c-0.6,0.7-0.9,1.4-1.1,2.1c-0.2,0.7-0.2,1.2-0.2,1.5c0,1.5,0.3,2.6,0.9,3.4c0.6,0.8,1.4,1.4,2.4,1.8   c1,0.4,2.2,0.8,3.4,1.1c1.2,0.3,2.6,0.7,4.3,1.1c1.2,0.3,2.3,0.6,3.5,1c1.1,0.3,2.2,0.8,3.1,1.4c0.9,0.6,1.6,1.3,2.2,2.2   c0.6,0.9,0.8,2.1,0.8,3.5c0,1.5-0.3,2.8-1,3.8c-0.6,1-1.5,1.9-2.5,2.6c-1,0.7-2.2,1.1-3.5,1.4s-2.6,0.4-3.9,0.4c-4,0-7-0.9-9-2.6   c-2-1.7-3-4.5-3-8.2h1.2c0,3.4,0.9,5.8,2.8,7.4c1.9,1.6,4.6,2.4,8.1,2.4c1.1,0,2.2-0.1,3.3-0.4c1.1-0.3,2.2-0.7,3.1-1.2   c0.9-0.6,1.7-1.3,2.3-2.2c0.6-0.9,0.9-2,0.9-3.3c0-1.3-0.3-2.4-0.9-3.2c-0.6-0.8-1.4-1.5-2.3-2c-0.9-0.5-2-0.9-3.3-1.2   c-1.2-0.3-2.5-0.6-3.8-0.9c-1.4-0.3-2.7-0.7-3.8-1c-1.1-0.3-2.1-0.7-2.9-1c-1.2-0.5-2.1-1.3-2.7-2.3c-0.6-1-0.9-2.3-0.9-3.9   c0-0.8,0.2-1.7,0.5-2.6c0.3-0.9,0.9-1.7,1.7-2.4c0.8-0.7,1.9-1.3,3.1-1.8c1.3-0.5,2.8-0.7,4.7-0.7c3.3,0,6,0.8,7.9,2.3   c1.9,1.5,2.9,3.9,2.9,7.3h-1.2C186.9,118.6,186.7,117.3,186.2,116.2z"></path>
	<path d="M213.1,116.2c-0.5-1-1.1-1.9-2-2.6c-0.9-0.7-1.9-1.2-3-1.5c-1.2-0.3-2.5-0.5-3.9-0.5c-2.1,0-3.7,0.3-4.9,0.8   c-1.2,0.6-2.1,1.2-2.7,1.9c-0.6,0.7-0.9,1.4-1.1,2.1c-0.2,0.7-0.2,1.2-0.2,1.5c0,1.5,0.3,2.6,0.9,3.4c0.6,0.8,1.4,1.4,2.4,1.8   c1,0.4,2.2,0.8,3.4,1.1c1.2,0.3,2.6,0.7,4.3,1.1c1.2,0.3,2.3,0.6,3.5,1c1.1,0.3,2.2,0.8,3.1,1.4c0.9,0.6,1.6,1.3,2.2,2.2   c0.6,0.9,0.8,2.1,0.8,3.5c0,1.5-0.3,2.8-1,3.8c-0.6,1-1.5,1.9-2.5,2.6c-1,0.7-2.2,1.1-3.5,1.4s-2.6,0.4-3.9,0.4c-4,0-7-0.9-9-2.6   c-2-1.7-3-4.5-3-8.2h1.2c0,3.4,0.9,5.8,2.8,7.4c1.9,1.6,4.6,2.4,8.1,2.4c1.1,0,2.2-0.1,3.3-0.4c1.1-0.3,2.2-0.7,3.1-1.2   c0.9-0.6,1.7-1.3,2.3-2.2c0.6-0.9,0.9-2,0.9-3.3c0-1.3-0.3-2.4-0.9-3.2c-0.6-0.8-1.4-1.5-2.3-2c-0.9-0.5-2-0.9-3.3-1.2   c-1.2-0.3-2.5-0.6-3.8-0.9c-1.4-0.3-2.7-0.7-3.8-1c-1.1-0.3-2.1-0.7-2.9-1c-1.2-0.5-2.1-1.3-2.7-2.3c-0.6-1-0.9-2.3-0.9-3.9   c0-0.8,0.2-1.7,0.5-2.6c0.3-0.9,0.9-1.7,1.7-2.4c0.8-0.7,1.9-1.3,3.1-1.8c1.3-0.5,2.8-0.7,4.7-0.7c3.3,0,6,0.8,7.9,2.3   c1.9,1.5,2.9,3.9,2.9,7.3h-1.2C213.8,118.6,213.5,117.3,213.1,116.2z"></path>
</g>
</svg>