<svg xmlns="http://www.w3.org/2000/svg" xmlns:xlink="http://www.w3.org/1999/xlink" id="Layer_1" x="0px" y="0px" viewBox="0 0 250 250" style="enable-background:new 0 0 250 250;" xml:space="preserve">
<style type="text/css">
	.st0{fill:#ffffff;}
</style>
<g>
	<path class="st0" d="M124.7,43c-46.4,0-84,37.7-84,84c0,37.2,24.1,68.7,57.5,79.8c4.2,0.8,5.7-1.9,5.7-4.1c0-2-0.1-8.6-0.1-15.6   c-23.4,5.1-28.2-9.9-28.2-9.9c-3.9-9.8-9.4-12.3-9.4-12.3c-7.6-5.2,0.5-5.1,0.5-5.1c8.5,0.6,12.9,8.6,12.9,8.6   c7.5,12.9,19.8,9.2,24.4,7c0.8-5.5,2.9-9.2,5.4-11.3c-18.7-2.1-38.3-9.4-38.3-41.6c0-9.2,3.3-16.7,8.6-22.6   C79,97.9,76,89.3,80.6,77.8c0,0,7.1-2.2,23.2,8.6c6.7-1.9,13.9-2.7,21-2.8c7.1,0,14.3,1,21.1,2.8c16-10.9,22.9-8.6,22.9-8.6   c4.6,11.6,1.7,20.1,0.8,22.2c5.4,5.9,8.6,13.4,8.6,22.6c0,32.2-19.8,39.4-38.5,41.5c3,2.6,5.7,7.8,5.7,15.5   c0,11.3-0.1,20.3-0.1,23.1c0,2.2,1.5,4.9,5.7,4.1c33.4-11,57.5-42.5,57.5-79.7C208.8,80.7,171.2,43,124.7,43z"></path>
	<path class="st0" d="M72.5,163.7c-0.2,0.4-0.8,0.5-1.4,0.2c-0.6-0.3-0.9-0.8-0.8-1.2c0.2-0.4,0.8-0.5,1.4-0.2   C72.3,162.8,72.7,163.2,72.5,163.7L72.5,163.7z"></path>
	<path class="st0" d="M75.9,167.5c-0.4,0.4-1.1,0.2-1.7-0.4c-0.5-0.6-0.7-1.4-0.2-1.8c0.4-0.4,1.1-0.2,1.7,0.4   C76.1,166.3,76.3,167.2,75.9,167.5L75.9,167.5z"></path>
	<path class="st0" d="M79.2,172.4c-0.5,0.4-1.4,0-1.9-0.7c-0.5-0.8-0.5-1.6,0-2c0.5-0.4,1.4,0,1.9,0.7   C79.7,171.1,79.7,172,79.2,172.4L79.2,172.4z"></path>
	<path class="st0" d="M83.8,177.1c-0.4,0.5-1.4,0.4-2.1-0.3c-0.8-0.7-0.9-1.6-0.4-2.1c0.4-0.5,1.4-0.4,2.1,0.3   C84,175.6,84.2,176.5,83.8,177.1L83.8,177.1z"></path>
	<path class="st0" d="M90,179.7c-0.2,0.7-1.1,0.9-2,0.7c-0.9-0.3-1.6-1.1-1.4-1.7c0.2-0.7,1.1-1,2-0.7C89.6,178.3,90.2,179,90,179.7   L90,179.7z"></path>
	<path class="st0" d="M96.9,180.3c0,0.7-0.8,1.3-1.8,1.3c-1.1,0-1.9-0.5-1.9-1.2s0.8-1.3,1.8-1.3C96.1,179,96.9,179.6,96.9,180.3   L96.9,180.3z"></path>
	<path class="st0" d="M103.3,179.1c0.2,0.7-0.6,1.4-1.5,1.5c-1,0.2-1.9-0.2-2-0.9c-0.2-0.7,0.6-1.4,1.5-1.5   C102.2,178,103.2,178.4,103.3,179.1L103.3,179.1z"></path>
</g>
</svg>