<svg xmlns="http://www.w3.org/2000/svg" xmlns:xlink="http://www.w3.org/1999/xlink" id="Layer_1" x="0px" y="0px" viewBox="0 0 250 250" style="enable-background:new 0 0 250 250;" xml:space="preserve">
<style type="text/css">
	.st0{fill:#5ABF3C;}
	.st1{fill:#FFFFFF;}
</style>
<rect x="48.4" y="93.4" class="st0" width="153.5" height="64.6"></rect>
<g>
	<path class="st1" d="M94.3,130.9c0,2.3-0.3,4.1-1,5.4c-1.3,2.3-3.7,3.5-7.3,3.5c-2.1,0-3.8-0.6-5.3-1.7c-1.5-1.1-2.2-3.1-2.2-5.9   v-2h3.5v2c0,1.5,0.3,2.6,1,3.4c0.7,0.8,1.7,1.1,3.1,1.1c2,0,3.3-0.7,3.9-2c0.4-0.8,0.6-2.4,0.6-4.7v-18.3h3.7V130.9z"></path>
	<path class="st1" d="M100.3,111.6h19.9v3.4h-16.3v8.3H119v3.2h-15.1v9.3h16.6v3.3h-20.2V111.6z"></path>
	<path class="st1" d="M127.9,130.2c0.1,1.6,0.4,2.8,1.1,3.8c1.2,1.8,3.3,2.7,6.3,2.7c1.3,0,2.6-0.2,3.7-0.6c2.1-0.8,3.2-2.2,3.2-4.1   c0-1.5-0.5-2.6-1.4-3.2c-0.9-0.6-2.4-1.2-4.3-1.6l-3.6-0.8c-2.4-0.5-4-1.2-5-1.8c-1.7-1.1-2.5-2.9-2.5-5.1c0-2.5,0.8-4.5,2.5-6.1   c1.7-1.6,4-2.4,7.1-2.4c2.8,0,5.2,0.7,7.1,2.1c2,1.4,2.9,3.6,2.9,6.7h-3.5c-0.2-1.5-0.6-2.6-1.1-3.4c-1.1-1.4-2.9-2.1-5.5-2.1   c-2.1,0-3.6,0.5-4.5,1.4c-0.9,0.9-1.4,2-1.4,3.2c0,1.3,0.5,2.3,1.6,3c0.7,0.4,2.3,0.9,4.8,1.5l3.7,0.9c1.8,0.4,3.2,1,4.2,1.7   c1.7,1.3,2.5,3.1,2.5,5.6c0,3-1.1,5.2-3.2,6.5c-2.2,1.3-4.7,2-7.5,2c-3.3,0-5.9-0.9-7.8-2.6c-1.9-1.7-2.8-4.1-2.8-7H127.9z"></path>
	<path class="st1" d="M170.9,111.6v3.3h-9.2v24.2h-3.8v-24.2h-9.2v-3.3H170.9z"></path>
</g>
</svg>