<svg xmlns="http://www.w3.org/2000/svg" xmlns:xlink="http://www.w3.org/1999/xlink" id="Layer_1" x="0px" y="0px" viewBox="0 0 250 250" style="enable-background:new 0 0 250 250;" xml:space="preserve">
<style type="text/css">
	.st0{fill:#599636;}
	.st1{fill:#6CAC48;}
	.st2{fill:#C2BFBF;}
</style>
<path class="st0" d="M125.3,34.2l5,9.4c1.1,1.8,2.3,3.3,3.8,4.7c4.2,4.2,8.2,8.6,11.8,13.3c8.5,11.1,14.2,23.5,18.3,36.9  c2.5,8.2,3.8,16.6,3.8,25c0.4,25.4-8.2,47.1-25.8,65.1c-2.9,2.9-5.9,5.5-9.2,7.8c-1.8,0-2.6-1.4-3.3-2.6c-1.3-2.2-2.2-4.8-2.6-7.4  c-0.6-3-1-6.2-0.8-9.3v-1.4C126.2,175.6,124.7,34.9,125.3,34.2L125.3,34.2z"></path>
<path class="st1" d="M125.3,33.9c-0.2-0.4-0.4-0.1-0.6,0.1c0.1,2.1-0.6,3.8-1.8,5.6c-1.2,1.8-2.9,3-4.5,4.5  c-9.1,7.8-16.2,17.4-21.9,28c-7.6,14.3-11.5,29.6-12.6,45.8c-0.5,5.8,1.8,26.3,3.7,32.3c5,15.8,14,28.9,25.6,40.3  c2.9,2.7,5.9,5.3,9.1,7.8c0.9,0,1-0.8,1.2-1.4c0.4-1.3,0.7-2.6,0.9-4l2.1-15.3L125.3,33.9z"></path>
<path class="st2" d="M130.3,202.7c0.2-2.3,1.4-4.3,2.6-6.2c-1.2-0.5-2.2-1.5-2.9-2.6c-0.6-1-1.1-2.2-1.5-3.4  c-1.4-4.3-1.8-8.8-2.2-13.2v-2.6c-0.5,0.4-0.6,3.8-0.6,4.4c-0.3,4.6-0.9,9.2-1.8,13.8c-0.3,1.8-0.5,3.7-1.7,5.3c0,0.2,0,0.4,0.1,0.7  c1.8,5.4,2.3,11,2.6,16.6v2.1c0,2.5-0.1,1.9,1.9,2.7c0.8,0.3,1.8,0.4,2.6,1c0.6,0,0.7-0.5,0.7-0.9l-0.3-3.4v-9.4  C129.7,205.9,130.1,204.2,130.3,202.7L130.3,202.7z"></path>
</svg>