<svg xmlns="http://www.w3.org/2000/svg" xmlns:xlink="http://www.w3.org/1999/xlink" id="Layer_1" x="0px" y="0px" viewBox="0 0 250 250" style="enable-background:new 0 0 250 250;" xml:space="preserve">
<style type="text/css">
	.st0{fill:#689F63;}
	.st1{fill:#333333;}
	.st2{clip-path:url(#SVGID_2_);}
	.st3{clip-path:url(#SVGID_4_);}
	.st4{clip-path:url(#SVGID_6_);}
</style>
<path class="st0" d="M123,200.2c-0.8,0-1.6-0.2-2.3-0.6l-7.2-4.3c-1.1-0.6-0.6-0.8-0.2-0.9c1.4-0.5,1.7-0.6,3.3-1.5  c0.2-0.1,0.4-0.1,0.5,0l5.5,3.3c0.2,0.1,0.5,0.1,0.7,0l21.6-12.5c0.2-0.1,0.3-0.3,0.3-0.6v-24.9c0-0.2-0.1-0.5-0.3-0.6l-21.6-12.4  c-0.2-0.1-0.5-0.1-0.7,0L101,157.6c-0.2,0.1-0.3,0.4-0.3,0.6v24.9c0,0.2,0.1,0.5,0.3,0.6l5.9,3.4c3.2,1.6,5.2-0.3,5.2-2.2v-24.6  c0-0.4,0.3-0.6,0.6-0.6h2.7c0.3,0,0.6,0.3,0.6,0.6V185c0,4.3-2.3,6.7-6.4,6.7c-1.2,0-2.2,0-5-1.4l-5.7-3.3c-1.4-0.8-2.3-2.3-2.3-3.9  v-24.9c0-1.6,0.9-3.1,2.3-3.9l21.6-12.5c1.4-0.8,3.2-0.8,4.5,0l21.6,12.5c1.4,0.8,2.3,2.3,2.3,3.9v24.9c0,1.6-0.9,3.1-2.3,3.9  L125,199.5C124.6,200,123.8,200.2,123,200.2"></path>
<path class="st0" d="M129.7,183.1c-9.4,0-11.4-4.3-11.4-8c0-0.3,0.3-0.6,0.6-0.6h2.8c0.3,0,0.6,0.2,0.6,0.5c0.4,2.8,1.7,4.3,7.4,4.3  c4.5,0,6.5-1,6.5-3.4c0-1.4-0.6-2.4-7.6-3.1c-5.9-0.6-9.6-1.9-9.6-6.6c0-4.4,3.7-6.9,9.8-6.9c6.9,0,10.3,2.4,10.8,7.6  c0,0.2,0,0.4-0.2,0.5c-0.1,0.1-0.3,0.2-0.5,0.2h-2.8c-0.3,0-0.5-0.2-0.6-0.5c-0.7-3-2.3-3.9-6.7-3.9c-5,0-5.5,1.7-5.5,3  c0,1.6,0.7,2,7.4,2.9c6.6,0.9,9.8,2.1,9.8,6.8C140.4,180.4,136.5,183.1,129.7,183.1 M155.9,156.7h0.7c0.6,0,0.7-0.4,0.7-0.7  c0-0.6-0.4-0.6-0.7-0.6h-0.7V156.7z M155,154.6h1.6c0.6,0,1.6,0,1.6,1.2c0,0.9-0.6,1-0.9,1.1c0.6,0,0.7,0.5,0.8,1.1  c0,0.4,0.1,1,0.2,1.2h-1c0-0.2-0.2-1.4-0.2-1.5c-0.1-0.3-0.2-0.4-0.5-0.4h-0.8v1.9H155V154.6z M153.1,157c0,1.9,1.6,3.5,3.5,3.5  s3.5-1.6,3.5-3.5s-1.6-3.5-3.5-3.5C154.7,153.5,153.1,155,153.1,157 M160.8,157c0,2.3-1.9,4.2-4.2,4.2s-4.2-1.8-4.2-4.2  s1.9-4.2,4.2-4.2C158.8,152.8,160.8,154.6,160.8,157"></path>
<path class="st1" d="M56.2,102.8c0-1-0.5-1.9-1.4-2.4L31.9,87.2c-0.4-0.2-0.8-0.3-1.3-0.4h-0.2c-0.4,0-0.9,0.1-1.3,0.4L6.3,100.4  c-0.9,0.5-1.4,1.4-1.4,2.4L5,138.3c0,0.5,0.3,1,0.7,1.2c0.4,0.3,1,0.3,1.4,0l13.6-7.8c0.9-0.5,1.4-1.4,1.4-2.4v-16.6  c0-1,0.5-1.9,1.4-2.4l5.8-3.3c0.4-0.2,0.9-0.4,1.4-0.4s1,0.1,1.4,0.4l5.8,3.3c0.9,0.5,1.4,1.4,1.4,2.4v16.6c0,1,0.5,1.9,1.4,2.4  l13.6,7.8c0.4,0.3,1,0.3,1.4,0c0.4-0.2,0.7-0.7,0.7-1.2L56.2,102.8z M164.1,121.2c0,0.2-0.1,0.5-0.3,0.6l-7.9,4.5  c-0.2,0.1-0.5,0.1-0.7,0l-7.9-4.5c-0.2-0.1-0.3-0.4-0.3-0.6v-9.1c0-0.2,0.1-0.5,0.3-0.6l7.9-4.5c0.2-0.1,0.5-0.1,0.7,0l7.9,4.5  c0.2,0.1,0.3,0.4,0.3,0.6V121.2z M166.3,54c-0.4-0.2-1-0.2-1.4,0s-0.7,0.7-0.7,1.2v35.1c0,0.3-0.2,0.7-0.5,0.8c-0.3,0.2-0.7,0.2-1,0  l-5.7-3.3c-0.9-0.5-1.9-0.5-2.8,0L131.3,101c-0.9,0.5-1.4,1.4-1.4,2.4v26.4c0,1,0.5,1.9,1.4,2.4l22.9,13.2c0.9,0.5,1.9,0.5,2.8,0  l22.9-13.2c0.9-0.5,1.4-1.4,1.4-2.4V64c0-1-0.5-1.9-1.4-2.4L166.3,54z M242.5,111.9c0.9-0.5,1.4-1.4,1.4-2.4v-6.4  c0-1-0.5-1.9-1.4-2.4l-22.7-13.2c-0.9-0.5-1.9-0.5-2.8,0l-22.9,13.2c-0.9,0.5-1.4,1.4-1.4,2.4v26.4c0,1,0.5,1.9,1.4,2.4l22.7,13  c0.8,0.5,1.9,0.5,2.7,0l13.8-7.6c0.4-0.2,0.7-0.7,0.7-1.2s-0.3-1-0.7-1.2l-23-13.2c-0.4-0.2-0.7-0.7-0.7-1.2v-8.3  c0-0.5,0.3-1,0.7-1.2l7.2-4.1c0.4-0.2,1-0.2,1.4,0l7.2,4.1c0.4,0.2,0.7,0.7,0.7,1.2v6.5c0,0.5,0.3,1,0.7,1.2s1,0.2,1.4,0  L242.5,111.9z"></path>
<path class="st0" d="M218,110.7c0.2-0.1,0.4-0.1,0.5,0l4.4,2.5c0.2,0.1,0.3,0.3,0.3,0.5v5.1c0,0.2-0.1,0.4-0.3,0.5l-4.4,2.5  c-0.2,0.1-0.4,0.1-0.5,0l-4.4-2.5c-0.2-0.1-0.3-0.3-0.3-0.5v-5.1c0-0.2,0.1-0.4,0.3-0.5L218,110.7z"></path>
<g>
	<g>
		<defs>
			<path id="SVGID_1_" d="M91.4,87.6l-22.8,13.1c-0.9,0.5-1.4,1.4-1.4,2.4v26.3c0,1,0.5,1.9,1.4,2.4l22.8,13.1     c0.9,0.5,1.9,0.5,2.7,0l22.8-13.1c0.8-0.5,1.4-1.4,1.4-2.4v-26.3c0-1-0.5-1.9-1.4-2.4L94.2,87.6c-0.4-0.2-0.9-0.4-1.4-0.4     S91.8,87.3,91.4,87.6"></path>
		</defs>
		<use xlink:href="#SVGID_1_" style="overflow:visible;fill:#689F63;"></use>
		<clipPath id="SVGID_2_">
			<use xlink:href="#SVGID_1_" style="overflow:visible;"></use>
		</clipPath>
		<g transform="translate(-78.306 -164.016)" class="st2">
			<path class="st0" d="M297.9,426.5l-64.1-31.4l-32.9,67.1l64.1,31.4L297.9,426.5z"></path>
		</g>
	</g>
</g>
<g>
	<g>
		<defs>
			<path id="SVGID_3_" d="M67.8,131.1c0.2,0.3,0.5,0.5,0.8,0.7l19.5,11.3l3.3,1.9c0.5,0.3,1,0.4,1.6,0.4c0.2,0,0.4,0,0.5-0.1l24-44     c-0.2-0.2-0.4-0.4-0.6-0.5L102,92.1l-7.9-4.5c-0.2-0.1-0.5-0.2-0.7-0.3L67.8,131.1z"></path>
		</defs>
		<use xlink:href="#SVGID_3_" style="overflow:visible;fill:#689F63;"></use>
		<clipPath id="SVGID_4_">
			<use xlink:href="#SVGID_3_" style="overflow:visible;"></use>
		</clipPath>
		<g transform="translate(-78.306 -164.016)" class="st3">
			<path class="st0" d="M196.7,435.8l45.3,61.3l59.9-44.3l-45.3-61.3L196.7,435.8z"></path>
		</g>
	</g>
</g>
<g>
	<g>
		<defs>
			<path id="SVGID_5_" d="M92.5,87.2c-0.4,0-0.8,0.2-1.1,0.4l-22.7,13.1l24.5,44.6c0.3,0,0.7-0.2,1-0.3l22.8-13.1     c0.7-0.4,1.2-1.1,1.3-1.9l-25-42.7c-0.2,0-0.4-0.1-0.6-0.1C92.7,87.2,92.6,87.2,92.5,87.2"></path>
		</defs>
		<use xlink:href="#SVGID_5_" style="overflow:visible;fill:#689F63;"></use>
		<clipPath id="SVGID_6_">
			<use xlink:href="#SVGID_5_" style="overflow:visible;"></use>
		</clipPath>
		<g transform="translate(-78.306 -164.016)" class="st4">
			<path class="st0" d="M225.3,415.2v58h49.5v-58L225.3,415.2L225.3,415.2z"></path>
		</g>
	</g>
</g>
</svg>